<svg xmlns="http://www.w3.org/2000/svg" viewBox="0 0 28.8 29.6"><defs><style>.cls-1{fill:#ff6969;}.cls-2{fill:#fff;stroke:#fff;}</style></defs><title>Recurso 1</title><g id="Capa_2" data-name="Capa 2"><g id="BOTONES"><path id="Rectángulo_2-2" data-name="Rectángulo 2-2" class="cls-1" d="M14.4,0h0A14.34,14.34,0,0,1,28.8,14.4v.8A14.34,14.34,0,0,1,14.4,29.6h0A14.34,14.34,0,0,1,0,15.2v-.8A14.4,14.4,0,0,1,14.4,0Z"/><path id="Trazado_11-2" data-name="Trazado 11-2" class="cls-2" d="M18.1,14.8h0a.86.86,0,0,0-.3-.6h0L12.9,9.3h0a.85.85,0,0,0-1.1,1.3h0l4.3,4.3-4.4,4.4h0a.91.91,0,0,0,0,1.2.78.78,0,0,0,1.1,0h0l4.9-4.9h0a1,1,0,0,0,.4-.8Z"/></g></g></svg>