<svg xmlns="http://www.w3.org/2000/svg" viewBox="0 0 179.31 192"><defs><style>.cls-1{fill:#9c27b0;}.cls-2{fill:#f44336;}</style></defs><title>Recurso 1</title><g id="Capa_2" data-name="Capa 2"><g id="ROSTRO"><path class="cls-1" d="M9.54,62.49S-8.46,37.62,5,0C5,0,34.26,4.18,49.25,22.54l-11,6.91s-7.45-10-22.9-12.36c0,0-6.1,17.56,2.62,31.73Z"/><path class="cls-1" d="M169.78,62.49s18-24.87,4.54-62.49c0,0-29.27,4.18-44.26,22.54l11,6.91s7.45-10,22.9-12.36c0,0,5.74,17.23-2.66,31.59Z"/><path class="cls-2" d="M38.25,29.45,18,48.82a37.05,37.05,0,0,1-2.62-31.73S27.41,17,38.25,29.45Z"/><path class="cls-2" d="M141.05,29.45,161.3,48.68A38.68,38.68,0,0,0,164,17.09S151.9,17,141.05,29.45Z"/><circle class="cls-1" cx="89.69" cy="102.45" r="89.55"/><path d="M38.1,85.62A151.09,151.09,0,0,1,17.36,75.41,23.81,23.81,0,0,0,21.27,102c12,12.54,34,7.18,38.87-9.45A150.63,150.63,0,0,1,38.1,85.62Z"/><path d="M137.66,85.62a149.29,149.29,0,0,0,20.73-10.21,23.14,23.14,0,0,1-23,33.58c-9.46-1-16.74-7.72-19.77-16.47A150.52,150.52,0,0,0,137.66,85.62Z"/><ellipse cx="88.24" cy="100.63" rx="7.07" ry="2.38"/><path class="cls-2" d="M38.68,136.22s46.25,25.05,104.18-20.43C142.86,115.79,61.06,253,38.68,136.22Z"/></g></g></svg>