<svg xmlns="http://www.w3.org/2000/svg" xmlns:xlink="http://www.w3.org/1999/xlink" viewBox="0 0 200 177.78"><defs><style>.cls-1{fill:#b622b5;}</style></defs><title>Recurso 1</title><g id="Capa_2" data-name="Capa 2"><g id="IMAGEN"><path class="cls-1" d="M188.89,22.22H177.78V11.11A11.14,11.14,0,0,0,166.67,0H11.11A11.14,11.14,0,0,0,0,11.11V144.44a11.15,11.15,0,0,0,11.11,11.12H22.22v11.11a11.14,11.14,0,0,0,11.11,11.11H188.89A11.14,11.14,0,0,0,200,166.67V33.33A11.14,11.14,0,0,0,188.89,22.22ZM22.22,33.33V144.44H11.13l0,0V11.13l0,0H166.64l0,0V22.22H33.33A11.14,11.14,0,0,0,22.22,33.33ZM188.89,166.64l0,0H33.36l0,0V33.36l0,0H188.87l0,0Z"/><g id="Capa_2-2" data-name="Capa 2"><image width="2134" height="2134" transform="translate(50 38.89) scale(0.06)" xlink:href="logo512x512-01.png"/></g></g></g></svg>