<svg xmlns="http://www.w3.org/2000/svg" viewBox="0 0 44 34.53"><defs><style>.cls-1{fill:#b622b5;}</style></defs><title>Recurso 6</title><g id="Capa_2" data-name="Capa 2"><g id="INICIO"><path class="cls-1" d="M44,17.41h0a1.47,1.47,0,0,1-2.38,1.16L22.91,4.05a1.5,1.5,0,0,0-1.82,0L2.38,18.57A1.47,1.47,0,0,1,0,17.41H0a1.48,1.48,0,0,1,.57-1.17L21.09.31a1.5,1.5,0,0,1,1.82,0L43.43,16.24A1.48,1.48,0,0,1,44,17.41Z"/><path class="cls-1" d="M22,6.9,37.5,18.53v15h-9v-10a1,1,0,0,0-1-1h-11a1,1,0,0,0-1,1v10h-9v-15L22,6.9m0-1.25L5.5,18v16.5h11v-11h11v11h11V18L22,5.65Z"/><path class="cls-1" d="M27,23.83v9.7H17v-9.7H27m1-1H16v11.7H28V22.83Z"/></g></g></svg>