<svg xmlns="http://www.w3.org/2000/svg" viewBox="0 0 44 44"><defs><style>.cls-1{fill:#fff;fill-opacity:0;}.cls-2{fill:#ff17d8;}</style></defs><title>Recurso 1</title><g id="Capa_2" data-name="Capa 2"><g id="Capa_1-2" data-name="Capa 1"><rect id="Rectángulo_382" data-name="Rectángulo 382" class="cls-1" width="44" height="44"/><path id="ios-send" class="cls-2" d="M28.6,15,15.2,20.8a.25.25,0,0,0-.1.4c0,.1.1.1.2.1l3.6,2a.62.62,0,0,0,.7-.1L26.7,17l.2-.1s0,.2-.1.2l-6.2,7a.62.62,0,0,0-.1.7l2.4,3.8a.25.25,0,0,0,.4.1.1.1,0,0,0,.1-.1l5.5-13.4c.1-.2,0-.3-.2-.4C28.7,15,28.6,15,28.6,15Z"/></g></g></svg>