<svg xmlns="http://www.w3.org/2000/svg" viewBox="0 0 44 44"><defs><style>.cls-1{fill:#fff;fill-opacity:0;}.cls-2{fill:#ff17d8;}</style></defs><title>Recurso 2</title><g id="Capa_2" data-name="Capa 2"><g id="Capa_2-2" data-name="Capa 2"><rect id="Rectángulo_112" data-name="Rectángulo 112" class="cls-1" width="44" height="44"/><path id="Icon_ionic-ios-add" data-name="Icon ionic-ios-add" class="cls-2" d="M29.9,20.9H23.1V14.1A1.13,1.13,0,0,0,21.9,13a1.11,1.11,0,0,0-1.1,1.1v6.8H14a1.13,1.13,0,0,0-1.1,1.2A1.11,1.11,0,0,0,14,23.2h6.8V30a1.28,1.28,0,0,0,1.1,1.2,1.28,1.28,0,0,0,1.2-1.1V23.2h6.8a1.28,1.28,0,0,0,1.2-1.1,1.16,1.16,0,0,0-1.2-1.2Z"/></g></g></svg>