<svg xmlns="http://www.w3.org/2000/svg" viewBox="0 0 44 44"><defs><style>.cls-1{fill:#b622b5;}</style></defs><title>Recurso 8</title><g id="Capa_2" data-name="Capa 2"><g id="VIDEO"><g id="Rectángulo_154" data-name="Rectángulo 154"><path class="cls-1" d="M22,1A21,21,0,1,1,1,22,21,21,0,0,1,22,1m0-1h0A22,22,0,0,0,0,22H0A22,22,0,0,0,22,44h0A22,22,0,0,0,44,22h0A22,22,0,0,0,22,0Z"/></g><g id="Icon_awesome-play-2" data-name="Icon awesome-play-2"><path class="cls-1" d="M34.7,19.7,15.8,8.3a2.58,2.58,0,0,0-3.5.9,2.3,2.3,0,0,0-.4,1.4V33.4A2.56,2.56,0,0,0,14.4,36a2.5,2.5,0,0,0,1.4-.4L34.7,24.2a2.73,2.73,0,0,0,.9-3.6A3.82,3.82,0,0,0,34.7,19.7Z"/></g></g></g></svg>